<?xml version="1.0" encoding="UTF-8"?>
<svg id="Layer_1" xmlns="http://www.w3.org/2000/svg" viewBox="0 0 859.65 153.84">
  <defs>
    <style>
      .cls-1 {
        fill: #e01983;
      }
    </style>
  </defs>
  <g>
    <path class="cls-1" d="M291.69,38.76v72.74c0,3.73,1.95,5.32,4.63,5.32h1.78v3.01h-28.36v-3.01h1.95c2.5,0,4.98-.35,4.98-5.32V46.73c0-4.94-2.68-5.14-5.18-5.14h-2.33v-2.83h22.53ZM282.75,12.57c5.53,0,9.64,4.77,9.64,9.57,0,6.19-4.1,10.43-9.64,10.43s-9.64-4.25-9.64-10.43c0-4.77,4.28-9.57,9.64-9.57Z"/>
    <path class="cls-1" d="M335.36,0c16.94,0,30.48,7.43,30.48,26.38,0,13.27-9.64,27.25-23.53,29.91,16.59,3.35,27.1,17.34,27.1,32.4,0,17.17-13.36,31.15-30.83,31.15h-37.09v-3.01h1.78c6.61,0,6.61-4.07,6.61-9.39V11.5c0-3.53,0-8.67-6.78-8.67h-1.43V0h33.71-.02ZM330.91,3.53h-4.45v51.15h7.13c8.21,0,15.52-10.98,15.52-26.19,0-23.55-11.24-24.97-18.2-24.97ZM326.45,111.33c0,4.6,2.85,4.77,4.28,4.77h4.81c10.89,0,16.22-10.81,16.22-26.91,0-26.91-13.92-30.43-18.55-30.43h-6.78v52.57h.02Z"/>
    <path class="cls-1" d="M375.45,46.73c0-4.94-2.68-5.14-5.18-5.14h-2.33v-2.83h22.48v62.66c0,7.78,2.5,13.64,10.89,13.64,4.98,0,9.81-3.9,10.34-8.84v-59.48c0-4.94-2.68-5.14-5.18-5.14h-2.33v-2.83h22.48v72.74c0,3.73,1.95,5.32,4.63,5.32h1.78v3.01h-21.4v-6.19c-2.13,3.01-8.03,7.25-14.62,7.25-12.14,0-21.57-7.08-21.57-21.76v-52.4h.02Z"/>
    <path class="cls-1" d="M438.05,45.66c-1.43-3.9-4.1-4.07-8.56-4.07v-2.83h31.56v2.83c-3.38,0-7.13.17-7.13,3.73l13.19,53.64c1.25-5.49,14.79-52.57,14.79-53.64,0-3.53-3.38-3.73-6.78-3.73v-2.83h21.75v2.83c-4.98.17-7.83.52-9.26,4.07-11.06,38.58-18.37,62.14-23.35,75.95-3.75,11.68-10.69,32.22-25.33,32.22-6.43,0-12.66-3.73-12.66-10.81,0-3.73,2.33-7.08,6.06-7.08,5.36,0,6.78,3.73,6.78,8.84,0,2.31.7,3.9,3.93,3.9,4.63,0,11.76-10.81,16.94-27.8l-21.93-75.23Z"/>
    <path class="cls-1" d="M550.91,0v26.91h-3.2c-1.25-12.4-4.8-23.01-18.72-23.01h-10.51v53.09h5.18c6.06,0,12.11-3.73,12.11-11.33v-4.07h3.38v37.17h-3.38v-5.66c0-7.43-5.53-12.22-12.11-12.22h-5.18v46.56c0,3.9.35,9.39,6.61,9.39h2.5v3.01h-35.12v-3.01h2.5c6.78,0,6.96-5.49,6.96-9.39V11.5c0-3.53,0-8.67-7.31-8.67h-1.95V0h58.32-.08Z"/>
    <path class="cls-1" d="M560.53,7.97c0-4.94-2.68-5.14-5.18-5.14h-2.33V0h22.48v111.5c0,3.73,1.6,5.32,4.63,5.32h1.6v3.01h-28.18v-3.01h1.95c2.5,0,4.98-.35,4.98-5.32V7.97h.05Z"/>
    <path class="cls-1" d="M610.11,37.52c17.82,0,28.88,19.3,28.88,41.59s-11.06,41.76-28.88,41.76-28.36-19.83-28.36-41.76,10.69-41.59,28.36-41.59ZM610.11,117.71c7.66,0,13.19-7.97,13.19-37.51s-5.53-39.83-13.19-39.83-12.84,10.09-12.84,39.83,5.36,37.51,12.84,37.51Z"/>
    <path class="cls-1" d="M704.95,41.59h-1.6v-2.83h21.57v2.83h-2.5c-4.98.52-6.61,4.25-7.66,7.43l-18.72,70.81h-4.28l-14.09-53.99-13.92,53.99h-4.63l-19.07-74.16c-1.43-3.9-3.75-4.07-7.66-4.07v-2.83h29.43v2.83h-1.43c-3.2,0-5.36.72-4.63,3.9l9.99,46.56,9.46-36.65-2.5-9.74c-1.43-3.9-3.75-4.07-6.78-4.07h-.53v-2.83h29.26v2.83h-1.43c-3.2,0-5.36.72-4.63,3.9l9.81,45.32,11.41-44.77c.7-3.18-1.6-4.42-4.81-4.42l-.07-.02Z"/>
    <path class="cls-1" d="M717.08,79.83c0-21.76,10.34-42.31,28.01-42.31s23.9,21.42,23.9,36.99c0,1.24,0,2.66-1.6,2.66h-34.96v6.56c0,27.25,5.71,33.81,13.19,33.81h.7c10.51,0,14.44-12.75,16.59-21.76h5.71c-2.68,11.68-9.09,25.14-22.83,25.14-17.82,0-28.71-19.83-28.71-41.07v-.02ZM732.6,73.27h19.62c1.43,0,1.95-.89,1.95-2.31,0-12.02-1.43-30.43-9.26-30.43-6.41,0-11.24,10.43-12.31,32.74Z"/>
    <path class="cls-1" d="M792.33,111.5c0,3.73,1.95,5.32,4.63,5.32h1.78v3.01h-28.36v-3.01h1.95c2.5,0,4.98-.35,4.98-5.32V46.73c0-4.94-2.68-5.14-5.18-5.14h-2.33v-2.83h22.48v12.22c3.03-7.08,8.74-13.44,17.12-13.44,0,0,8.39,0,8.39,7.6,0,4.07-3.03,6.56-6.23,6.56-5.88,0-6.23-5.14-9.81-5.14-8.91.17-9.46,18.06-9.46,25.66v39.3l.05-.02Z"/>
    <path class="cls-1" d="M822.41,96.82c.35,5.66,2.13,21.07,14.97,21.07,6.41,0,10.34-5.14,10.34-11.5,0-19.3-29.96-25.49-29.96-48.15,0-12.4,11.59-20.72,23-20.72,5.18,0,11.24,1.24,15.87,2.83v19.3h-3.75c-.53-7.43-3.2-19.11-13.19-19.11-6.96,0-10.34,5.84-10.34,10.61,0,16.82,30.31,25.49,30.31,47.43,0,12.92-10.71,22.31-22.3,22.31-8.38,0-16.59-2.48-18.55-3.35v-20.72h3.6Z"/>
  </g>
  <g>
    <path class="cls-1" d="M92.99,118.03c-20.39,2-40.61-3.2-57.65-15.01C17.18,90.5,4.74,71.98,0,50.6c7.91-1.13,15.85-1.2,23.59-.17,2.74,10.58,7.37,20.69,13.78,29.93,13.35,19.22,33,32.46,55.62,37.67Z"/>
    <path class="cls-1" d="M209.07,50.6c-4.77,21.39-17.22,39.9-35.33,52.42-17.08,11.81-37.34,17.02-57.72,15.01,34.7-7.97,60.82-34.77,69.37-67.53,7.71-1.03,15.65-1.07,23.69.1Z"/>
    <path class="cls-1" d="M89.22,110.12c-18.78-5.57-35-17.25-46.38-33.57-5.37-7.71-9.38-16.12-11.98-24.86-.37-1.17-.7-2.37-1-3.57-.3-1.2-.57-2.4-.8-3.6-2-9.61-2.34-19.55-.93-29.5,18.05,3.97,33.63,13.38,45.31,26.19-1.5,6.01-2.27,12.04-2.27,18.12,0,17.32,6.17,34.6,18.05,50.78Z"/>
    <path class="cls-1" d="M179.9,44.56c-.2,1.2-.5,2.44-.8,3.6-.3,1.23-.63,2.4-1,3.6-8.18,27.43-29.73,49.88-58.32,58.39,11.91-16.18,18.12-33.5,18.12-50.82,0-6.07-.77-12.11-2.27-18.12,11.64-12.81,27.23-22.22,45.28-26.19,1.4,10.08,1,20.05-1,29.53Z"/>
    <path class="cls-1" d="M131.23,59.34c0,16.45-6.21,33-18.05,48.48-.9,1.27-1.9,2.5-2.9,3.7-.93,1.13-1.87,2.24-2.87,3.3-.93,1.07-1.87,2.1-2.87,3.14-1-1.03-1.94-2.07-2.87-3.14-1-1.1-1.97-2.2-2.9-3.34-1-1.2-1.97-2.44-2.9-3.7-11.84-15.48-18.02-32-18.02-48.45,0-3.87.33-7.71,1-11.58.27-1.43.57-2.87.93-4.3.3-1.3.63-2.64,1.03-3.94,4-13.38,12.01-26.53,23.72-38.8,11.68,12.28,19.69,25.39,23.69,38.74.4,1.33.77,2.64,1.07,3.97.37,1.43.67,2.9.93,4.34.67,3.87,1,7.71,1,11.58Z"/>
  </g>
</svg>